<svg id="SvgjsSvg1001" width="288" height="288" xmlns="http://www.w3.org/2000/svg" version="1.1" xmlns:xlink="http://www.w3.org/1999/xlink" xmlns:svgjs="http://svgjs.com/svgjs"><defs id="SvgjsDefs1002"></defs><g id="SvgjsG1008" transform="matrix(1,0,0,1,0,0)"><svg xmlns="http://www.w3.org/2000/svg" enable-background="new 0 0 459.334 459.334" viewBox="0 0 459.334 459.334" width="288" height="288"><path d="M175.216 404.514c-.001.12-.009.239-.009.359 0 30.078 24.383 54.461 54.461 54.461s54.461-24.383 54.461-54.461c0-.12-.008-.239-.009-.359H175.216zM403.549 336.438l-49.015-72.002c0-22.041 0-75.898 0-89.83 0-60.581-43.144-111.079-100.381-122.459V24.485C254.152 10.963 243.19 0 229.667 0s-24.485 10.963-24.485 24.485v27.663c-57.237 11.381-100.381 61.879-100.381 122.459 0 23.716 0 76.084 0 89.83l-49.015 72.002c-5.163 7.584-5.709 17.401-1.419 25.511 4.29 8.11 12.712 13.182 21.887 13.182H383.08c9.175 0 17.597-5.073 21.887-13.182C409.258 353.839 408.711 344.022 403.549 336.438z" fill="#e5e5e5" class="color000 svgShape"></path></svg></g></svg>