<?xml version="1.0" ?><svg width="32px" height="32px" viewBox="0 0 32 32" xmlns="http://www.w3.org/2000/svg"><defs><style>.cls-1{fill:#808285;}</style></defs><title/><g id="setting"><path class="cls-1" d="M28,13H26.59a11.34,11.34,0,0,0-1-2.36l1-1a3,3,0,0,0,0-4.25,3.09,3.09,0,0,0-4.25,0l-1,1a11.34,11.34,0,0,0-2.36-1V4a3,3,0,0,0-3-3,3,3,0,0,0-3,3V5.41a11.34,11.34,0,0,0-2.36,1l-1-1a3.1,3.1,0,0,0-4.25,0,3,3,0,0,0,0,4.25l1,1a11.34,11.34,0,0,0-1,2.36H4a3,3,0,0,0-3,3,3,3,0,0,0,3,3H5.41a11.34,11.34,0,0,0,1,2.36l-1,1a3,3,0,0,0,0,4.25,3.09,3.09,0,0,0,4.25,0l1-1a11.34,11.34,0,0,0,2.36,1V28a3,3,0,0,0,6,0V26.59a11.34,11.34,0,0,0,2.36-1l1,1a3.09,3.09,0,0,0,4.25,0,3,3,0,0,0,0-4.25l-1-1a11.34,11.34,0,0,0,1-2.36H28a3,3,0,0,0,0-6Zm-7.17,4.29a5,5,0,0,1-2.33,3,4.73,4.73,0,0,1-1.21.5A5.13,5.13,0,0,1,16,21a4.73,4.73,0,0,1-1.29-.18,4.29,4.29,0,0,1-1.22-.5,5,5,0,0,1-1.82-1.82,4.73,4.73,0,0,1-.5-1.21,5,5,0,0,1,0-2.58,4.61,4.61,0,0,1,.51-1.22,5,5,0,0,1,1.82-1.82,4.73,4.73,0,0,1,1.21-.5,4.81,4.81,0,0,1,2.58,0,4.29,4.29,0,0,1,1.22.5,5,5,0,0,1,1.82,1.82,4.73,4.73,0,0,1,.5,1.21,5,5,0,0,1,0,2.58Z"/></g></svg>